# xmcd CD database file
# Copyright (C) 1996 Ti Kan
#
# Track frame offsets:
# 	183
# 	16528
# 	32770
# 	49508
# 	63210
# 	78610
# 	91498
# 	107265
# 	121523
# 	136573
# 	145680
# 	162613
#
# Disc length: 2378 seconds
#
# Revision: 1
# Processed by: cddbd v1.4b41PL1 Copyright (c) Steve Scherf et al.
# Submitted via: DiscPlay 3.4.1
#
DISCID=8409480c
DTITLE=Nelson Ned - A canção que dedico a você
DYEAR=1900
DGENRE=
TTITLE0=Domingo à tarde
TTITLE1=Coraçãozinho louco
TTITLE2=A canção que dedico a você
TTITLE3=Quase quebrei o meu rádio
TTITLE4=Por sua causa
TTITLE5=Será
TTITLE6=Não tenho culpa de ser triste
TTITLE7=Eu gosto tanto de você
TTITLE8=O vento levou
TTITLE9=Lar, Doce lar
TTITLE10=Não sei mais viver comigo
TTITLE11=Todas as rosas vermelhas do mundo
EXTD=
EXTT0=
EXTT1=
EXTT2=
EXTT3=
EXTT4=
EXTT5=
EXTT6=
EXTT7=
EXTT8=
EXTT9=
EXTT10=
EXTT11=
PLAYORDER=
